<svg width="46" height="44" viewBox="0 0 46 44" fill="none" xmlns="http://www.w3.org/2000/svg">
<path d="M36.3166 27.2203C35.7339 27.785 35.4661 28.6018 35.5989 29.4028L37.5991 40.4728C37.7679 41.411 37.3719 42.3605 36.5866 42.9028C35.8171 43.4653 34.7934 43.5328 33.9541 43.0828L23.9889 37.8853C23.6424 37.7008 23.2576 37.6018 22.8639 37.5905H22.2541C22.0426 37.622 21.8356 37.6895 21.6466 37.793L11.6791 43.0153C11.1864 43.2628 10.6284 43.3505 10.0816 43.2628C8.74963 43.0108 7.86088 41.7418 8.07913 40.403L10.0816 29.333C10.2144 28.5253 9.94663 27.704 9.36388 27.1303L1.23913 19.2553C0.559631 18.596 0.323381 17.606 0.633881 16.7128C0.935381 15.8218 1.70488 15.1715 2.63413 15.0253L13.8166 13.403C14.6671 13.3153 15.4141 12.7978 15.7966 12.0328L20.7241 1.93026C20.8411 1.70526 20.9919 1.49826 21.1741 1.32276L21.3766 1.16526C21.4824 1.04826 21.6039 0.951509 21.7389 0.872759L21.9841 0.782759L22.3666 0.625259H23.3139C24.1599 0.713009 24.9046 1.21926 25.2939 1.97526L30.2866 12.0328C30.6466 12.7685 31.3464 13.2793 32.1541 13.403L43.3366 15.0253C44.2816 15.1603 45.0714 15.8128 45.3841 16.7128C45.6789 17.615 45.4246 18.605 44.7316 19.2553L36.3166 27.2203Z" fill="#69B99D"/>
</svg>
